<svg width="294" height="98" viewBox="0 0 294 98" fill="none" xmlns="http://www.w3.org/2000/svg">
<path d="M5.25692 72.9998L36.3691 11.4714V10.9494H0.384766V1.72705H47.5055V11.2626L16.4977 72.9998H5.25692Z" fill="white"/>
<path d="M290.2 19.5453C289.852 14.6732 287.984 10.6711 284.597 7.53895C281.233 4.40685 276.79 2.8408 271.268 2.8408C267.649 2.8408 264.412 3.53682 261.559 4.92886C258.705 6.32091 256.455 8.23497 254.807 10.6711C253.16 13.0839 252.336 15.8564 252.336 18.9885C252.336 20.7982 252.638 22.4686 253.241 23.9999C253.844 25.5311 254.761 26.9348 255.991 28.2108C257.243 29.4637 258.809 30.6005 260.689 31.6213C262.591 32.619 264.818 33.5122 267.371 34.301L275.444 36.8067C278.53 37.7579 281.198 38.8252 283.449 40.0084C285.699 41.1917 287.555 42.5257 289.017 44.0105C290.502 45.4722 291.604 47.1078 292.323 48.9175C293.042 50.704 293.402 52.6992 293.402 54.9033C293.402 58.6154 292.451 61.9215 290.548 64.8216C288.646 67.7217 285.989 69.9954 282.579 71.6426C279.168 73.2899 275.212 74.1135 270.711 74.1135C266.373 74.1135 262.58 73.3595 259.331 71.8515C256.083 70.3202 253.508 68.2205 251.606 65.5524C249.726 62.8612 248.671 59.7755 248.439 56.2953H250.666C250.898 59.3578 251.861 62.0607 253.554 64.404C255.248 66.7473 257.545 68.5801 260.445 69.9026C263.368 71.225 266.791 71.8862 270.711 71.8862C274.795 71.8862 278.368 71.1786 281.43 69.7634C284.516 68.3249 286.906 66.3297 288.599 63.7776C290.316 61.2255 291.175 58.2674 291.175 54.9033C291.175 52.3512 290.618 50.1123 289.504 48.1867C288.39 46.2378 286.639 44.521 284.249 43.0361C281.859 41.5513 278.739 40.2172 274.888 39.034L266.814 36.5283C261.222 34.765 257.035 32.4334 254.251 29.5333C251.49 26.6332 250.109 23.1183 250.109 18.9885C250.109 15.4852 251.026 12.3531 252.858 9.59222C254.691 6.80813 257.197 4.61566 260.376 3.0148C263.577 1.41395 267.208 0.613525 271.268 0.613525C275.352 0.613525 278.936 1.42555 282.022 3.0496C285.108 4.67365 287.555 6.91253 289.365 9.76622C291.175 12.6199 292.195 15.8796 292.427 19.5453H290.2Z" fill="white"/>
<path d="M184.161 1.72705H186.945L210.749 36.6674H211.028L234.832 1.72705H237.616L212.002 39.1731V72.9998H209.775V39.1731L184.161 1.72705Z" fill="white"/>
<path d="M133.273 72.9998H130.907L156.381 1.72705H159.444L184.918 72.9998H182.552L158.052 4.51114H157.773L133.273 72.9998ZM141.347 46.6901H174.478V48.9174H141.347V46.6901Z" fill="white"/>
<path d="M90.7896 72.9998H72.1362V1.72705H92.5993C99.1651 1.72705 104.78 3.1423 109.443 5.97279C114.13 8.78008 117.714 12.817 120.197 18.0836C122.702 23.3502 123.944 29.684 123.92 37.085C123.897 44.6717 122.575 51.1447 119.953 56.504C117.355 61.8402 113.584 65.9236 108.643 68.754C103.724 71.5845 97.7731 72.9998 90.7896 72.9998ZM74.3635 70.7725H90.7896C97.3787 70.7725 102.982 69.4385 107.599 66.7704C112.216 64.0791 115.719 60.2162 118.109 55.1816C120.521 50.147 121.716 44.1148 121.693 37.085C121.67 30.148 120.51 24.2086 118.213 19.2668C115.939 14.3251 112.645 10.5433 108.329 7.92166C104.014 5.27677 98.7707 3.95432 92.5993 3.95432H74.3635V70.7725Z" fill="white"/>
<path d="M283.663 85.3635H284.89L288.339 90.8863H288.441L291.89 85.3635H293.117L288.918 91.9601V96.9999H287.861V91.9601L283.663 85.3635Z" fill="white"/>
<path d="M238.773 96.9999V85.3635H245.523V86.3181H239.836V90.6988H245.165V91.6533H239.836V96.0453H245.637V96.9999H238.773Z" fill="white"/>
<path d="M199.2 85.3635V96.9999H198.166L191.291 87.2556H191.2V96.9999H190.137V85.3635H191.166L198.063 95.1192H198.154V85.3635H199.2Z" fill="white"/>
<path d="M143.563 96.9999V85.3635H147.319C148.145 85.3635 148.834 85.5131 149.387 85.8124C149.944 86.1078 150.363 86.5188 150.643 87.0453C150.927 87.5681 151.069 88.1684 151.069 88.8465C151.069 89.5245 150.927 90.123 150.643 90.6419C150.363 91.1609 149.946 91.5662 149.393 91.8578C148.84 92.1495 148.154 92.2953 147.336 92.2953H144.137V91.3238H147.308C147.914 91.3238 148.418 91.2234 148.819 91.0226C149.224 90.8219 149.526 90.5359 149.723 90.1647C149.923 89.7934 150.024 89.3541 150.024 88.8465C150.024 88.3389 149.923 87.8957 149.723 87.5169C149.522 87.1344 149.219 86.8389 148.813 86.6306C148.412 86.4222 147.904 86.3181 147.291 86.3181H144.626V96.9999H143.563ZM148.694 91.7499L151.558 96.9999H150.331L147.495 91.7499H148.694Z" fill="white"/>
<path d="M102.933 85.3635H103.995V93.0681C103.995 93.8597 103.81 94.5681 103.438 95.1931C103.067 95.8143 102.55 96.3048 101.887 96.6647C101.228 97.0207 100.461 97.1988 99.5861 97.1988C98.7149 97.1988 97.9478 97.0188 97.285 96.659C96.6221 96.2991 96.105 95.8086 95.7338 95.1874C95.3626 94.5662 95.177 93.8597 95.177 93.0681V85.3635H96.2395V92.9942C96.2395 93.6116 96.3778 94.1628 96.6543 94.6476C96.9308 95.1287 97.319 95.5075 97.819 95.784C98.3228 96.0605 98.9118 96.1988 99.5861 96.1988C100.26 96.1988 100.849 96.0605 101.353 95.784C101.857 95.5075 102.245 95.1287 102.518 94.6476C102.794 94.1628 102.933 93.6116 102.933 92.9942V85.3635Z" fill="white"/>
<path d="M56.1274 91.1816C56.1274 92.3937 55.9115 93.4487 55.4797 94.3464C55.0479 95.2403 54.4532 95.9335 53.6956 96.4259C52.9418 96.9146 52.0744 97.1589 51.0933 97.1589C50.1123 97.1589 49.243 96.9146 48.4854 96.4259C47.7316 95.9335 47.1388 95.2403 46.707 94.3464C46.279 93.4487 46.0649 92.3937 46.0649 91.1816C46.0649 89.9695 46.279 88.9165 46.707 88.0225C47.1388 87.1248 47.7335 86.4316 48.4911 85.943C49.2487 85.4506 50.1161 85.2043 51.0933 85.2043C52.0744 85.2043 52.9418 85.4506 53.6956 85.943C54.4532 86.4316 55.0479 87.1248 55.4797 88.0225C55.9115 88.9165 56.1274 89.9695 56.1274 91.1816ZM55.0933 91.1816C55.0933 90.14 54.9191 89.2479 54.5706 88.5055C54.2221 87.7593 53.7468 87.1892 53.1445 86.7953C52.5422 86.4013 51.8585 86.2043 51.0933 86.2043C50.332 86.2043 49.6502 86.4013 49.0479 86.7953C48.4456 87.1892 47.9684 87.7574 47.6161 88.4998C47.2676 89.2422 47.0933 90.1362 47.0933 91.1816C47.0933 92.2233 47.2676 93.1153 47.6161 93.8578C47.9646 94.6002 48.4399 95.1703 49.0422 95.568C49.6445 95.9619 50.3282 96.1589 51.0933 96.1589C51.8585 96.1589 52.5422 95.9619 53.1445 95.568C53.7505 95.174 54.2278 94.6059 54.5763 93.8634C54.9248 93.1172 55.0971 92.2233 55.0933 91.1816Z" fill="white"/>
<path d="M5.95432 85.3635H7.01682V93.7556C7.01304 94.5131 6.87667 95.1457 6.60773 95.6533C6.33879 96.1571 5.96758 96.534 5.4941 96.784C5.02061 97.034 4.47705 97.159 3.86341 97.159C3.26114 97.159 2.72326 97.0472 2.24978 96.8238C1.77629 96.6003 1.40319 96.2859 1.13046 95.8806C0.86152 95.4753 0.727051 94.9999 0.727051 94.4544H1.77251C1.77251 94.7991 1.86341 95.1041 2.04523 95.3692C2.22705 95.6306 2.47516 95.8351 2.78955 95.9828C3.10773 96.1306 3.46569 96.2044 3.86341 96.2044C4.27629 96.2044 4.63804 96.1173 4.94864 95.9431C5.26304 95.7688 5.50925 95.5018 5.68728 95.1419C5.86531 94.7783 5.95432 94.3162 5.95432 93.7556V85.3635Z" fill="white"/>
</svg>
